<svg viewBox="0 0 1024 1176.463" xmlns="http://www.w3.org/2000/svg"><path d="M576.3 591.817c-5.837 0-11.395 4.4-16.674 13.316-5.075 9.182-8.06 20.13-8.06 31.776 0 1.003.02 2.002.065 2.995l-.004-.14q33.95-9.537 33.95-35.23c.003-8.478-3.076-12.717-9.275-12.717zm113.89-.28q-13.257 0-25.153 22.513c-6.932 11.935-11.252 26.158-11.835 41.34l-.005.168c-.014.263-.022.57-.022.88 0 4.036 1.33 7.762 3.575 10.764l-.034-.047c2.01 2.706 5.197 4.44 8.788 4.44h.136-.007c8.837 0 17.195-7.52 24.993-22.593 6.9-12.007 11.192-26.3 11.752-41.544l.005-.164c.02-.314.03-.68.03-1.05 0-3.953-1.255-7.613-3.387-10.602l.038.056c-1.986-2.546-5.053-4.167-8.5-4.167-.132 0-.264.003-.395.008h.018zM503.762 519.68c-3.2 0-8 8.158-14.236 24.433-6.965 18.924-13.315 41.87-17.883 65.453l-.472 2.927c10.867-12.022 20.022-25.875 26.902-40.983l.41-1.005c5.95-11.628 9.74-25.266 10.467-39.71l.01-.24c.01-.222.016-.484.016-.747 0-2.577-.536-5.03-1.502-7.25l.046.118q-1.498-2.996-3.718-2.996zm201.94-24.713h6.64v41.828h-6.64zm-57.702 0h6.64v41.828h-6.68zm-24.112-1.2l.308-.002c2.82 0 5.493.635 7.88 1.77l-.11-.048c3.555 1.673 6.246 4.69 7.45 8.378l.028.1c.462 1.475.79 3.19.915 4.964l.003.073h-6.72c-.176-2.652-1.337-5.004-3.116-6.717l-.003-.003c-1.695-1.495-3.935-2.408-6.387-2.408-.144 0-.288.003-.43.01l.02-.002c-.067-.002-.145-.003-.224-.003-2.254 0-4.333.752-5.998 2.02l.024-.018c-1.834 1.47-3.222 3.427-3.975 5.674l-.025.086c-.866 2.505-1.366 5.392-1.366 8.395 0 .2.002.397.007.594v-.028c-.005.18-.008.39-.008.6 0 2.857.516 5.592 1.46 8.118l-.052-.16c.835 2.202 2.228 4.032 4.01 5.377l.03.022c1.678 1.2 3.773 1.922 6.036 1.922.085 0 .17 0 .254-.003h-.013c5.678 0 9.077-3.36 10.24-10.078h6.678c-.216 3.26-1.153 6.26-2.653 8.9l.054-.103c-1.384 2.373-3.373 4.26-5.76 5.48l-.078.038c-2.4 1.214-5.232 1.925-8.23 1.925-.144 0-.288-.002-.43-.005h.02c-.137.004-.297.006-.46.006-3.47 0-6.71-.987-9.455-2.695l.076.043c-2.826-1.89-5.036-4.498-6.395-7.567l-.045-.113c-1.445-3.273-2.286-7.09-2.286-11.103 0-.216.002-.43.007-.645v.032c-.002-.142-.004-.31-.004-.477 0-3.152.47-6.193 1.34-9.06l-.057.22c.828-2.796 2.13-5.224 3.828-7.317l-.03.04c1.587-1.992 3.596-3.578 5.898-4.638l.1-.04c2.188-1.012 4.748-1.602 7.447-1.602h.202-.01zm-41.388 0c.188-.005.41-.01.63-.01 2.76 0 5.388.563 7.777 1.58l-.13-.05c2.193.9 3.976 2.426 5.172 4.353l.026.046c1.133 1.883 1.804 4.156 1.804 6.586 0 .117-.002.233-.005.35v-.017h-7.04c-.24-4.44-3-6.678-8.32-6.678-.19-.01-.415-.018-.64-.018-2.188 0-4.232.616-5.967 1.685l.05-.028c-1.458.973-2.404 2.61-2.404 4.47 0 .072 0 .146.004.218v-.01.028c0 1.435.704 2.705 1.786 3.483l.013.01c1.707 1.16 3.727 2.002 5.906 2.385l.093.014 6.4 1.56c3.462.615 6.504 2.1 8.986 4.22l-.026-.022c1.74 1.785 2.812 4.227 2.812 6.92 0 .182-.005.363-.015.543v-.025c.003.073.004.16.004.246 0 2.522-.778 4.862-2.108 6.792l.025-.04c-1.513 2.09-3.582 3.695-5.99 4.61l-.09.03c-2.552 1.04-5.512 1.643-8.614 1.643-.148 0-.296 0-.445-.003h.022c-.392.03-.85.045-1.31.045-4.148 0-7.984-1.337-11.1-3.603l.054.037c-2.693-2.564-4.37-6.176-4.37-10.18 0-.203.005-.404.014-.605v.03h7.04c.104 1.235.345 2.376.71 3.46l-.03-.103c.327.836.787 1.553 1.36 2.162l-.002-.003c1.946 1.64 4.48 2.635 7.25 2.635.32 0 .636-.013.95-.04l-.042.004c.185.01.4.014.618.014 2.39 0 4.62-.675 6.513-1.846l-.052.03c1.617-.99 2.68-2.748 2.68-4.753v-.005l.002-.164c0-1.36-.586-2.585-1.52-3.434l-.004-.003c-1.386-1.076-3.06-1.85-4.888-2.19l-.07-.01-6.24-1.52c-2.52-.614-4.64-1.3-6.694-2.118l.337.118c-1.503-.637-2.798-1.457-3.934-2.453l.016.014c-1-.895-1.79-2.005-2.298-3.26l-.02-.058c-.41-1.196-.645-2.575-.645-4.008 0-.11 0-.218.003-.327v.016c-.004-.112-.006-.244-.006-.376 0-3.61 1.7-6.824 4.34-8.885l.025-.02c2.945-2.186 6.65-3.5 10.664-3.5.328 0 .655.01.98.026l-.046-.002zm142.44-10.316h6.636v11.517h6.88v5.4h-6.88v28.67c-.07.244-.108.524-.108.812 0 1.704 1.383 3.087 3.088 3.087.277 0 .546-.037.8-.105l-.02.005c.12.006.263.01.407.01.968 0 1.9-.15 2.777-.428l-.065.017v5.638c-1.618.323-3.494.526-5.41.56h-.03c-.184.013-.398.02-.615.02-2.022 0-3.892-.652-5.41-1.757l.026.018c-1.283-1.106-2.09-2.734-2.09-4.55 0-.13.003-.258.01-.386v.017-31.594h-5.638v-5.44h5.638zm-19.236-4.878h6.638v8.397h-6.638zm-40.628 0h6.638v34.59l18.395-18.195h7.797L683.35 509.44l17.116 27.352h-7.917L678.272 513.8l-6.558 6.638v16.394h-6.638zm-17.075 0h6.64v8.397h-6.68zm-491.258-14.316c-1.652-.08-3.588-.125-5.534-.125-32.99 0-62.925 13.07-84.915 34.31l.035-.033c-20.802 26.663-33.353 60.646-33.353 97.562 0 49.653 22.71 94.004 58.307 123.232l.278.222c34.957 29.138 80.347 46.827 129.868 46.827 33.23 0 64.598-7.963 92.3-22.087l-1.153.534c12.566-26.352 19.904-57.27 19.904-89.904 0-49.658-16.995-95.348-45.485-131.57l.347.458c-33.262-34.598-79.127-56.87-130.187-59.404l-.456-.018zM844.944 581.3c-14.582 32.884-32.44 61.223-53.75 86.56l.446-.544c-.277 1.745-.45 3.778-.48 5.847v.032c-.008.244-.013.53-.013.817 0 6.108 2.114 11.722 5.65 16.15l-.04-.052c3.128 4.146 8.044 6.798 13.58 6.798h.02-.002c11.84 0 28.552-10.557 50.146-31.47-.04 1.6-.12 3.2-.12 4.838q0 8.757 1.44 26.632l29.312-6.878c0-8 .12-14.276.4-18.955.574-7.825 1.51-14.907 2.825-21.856l-.186 1.183c.964-4.873 3.103-9.137 6.11-12.632l-.03.037 7.438-8.64c4.898-5.69 9.834-10.867 15.02-15.783l.096-.09c1.95-1.784 4.06-3.492 6.275-5.065l.2-.137c1.383-.983 3.06-1.643 4.874-1.835l.045-.004c2.2 0 3.318 1.4 3.318 4.24-1.31 7.46-3.478 14.13-6.44 20.347l.202-.472c-5.99 12.646-10.135 27.337-11.634 42.804l-.043.543c-.02.367-.03.798-.03 1.23 0 5.887 2.062 11.292 5.506 15.53l-.037-.045c3.318 3.814 8.18 6.212 13.6 6.212.252 0 .502-.005.75-.015h-.035c21.644-3.79 40.02-15.553 52.35-32.09l.155-.22v-15.235q-21.654 25.552-31.35 25.593c-4.36 0-6.52-2.68-6.52-8 1.535-9.723 4.256-18.463 8.053-26.6l-.254.608c5.702-12.22 9.733-26.4 11.344-41.31l.052-.598c.007-.195.01-.423.01-.653 0-4.636-1.7-8.875-4.51-12.128l.02.024c-2.657-3.117-6.587-5.082-10.976-5.082-.106 0-.21 0-.316.003h.016c-8.722.71-16.535 4.112-22.73 9.364l.057-.048c-12.704 10.282-24 21.285-34.217 33.238l-.294.353c3.96-16.945 8.56-31.363 14.136-45.283l-.74 2.095-32.352 6.238c-5.902 12.046-11.342 26.31-15.512 41.105l-.444 1.842c-1.4 5.203-2.688 11.71-3.584 18.34l-.095.855q-9.392 9.43-19.596 17.995c-2.503 1.96-5.686 3.16-9.148 3.2h-.01c-.1.004-.216.007-.333.007-2.694 0-5.09-1.28-6.61-3.266l-.014-.02c-1.615-2.26-2.58-5.08-2.58-8.124 0-.265.006-.528.02-.79v.036c.12-4.936.93-9.638 2.337-14.074l-.098.358c1.52-5.198 4.8-14.912 9.956-29.23l12.317-33.95zM656 253.274c-88.78 4.355-167.83 42.73-225.03 102.26l-.106.11c-117.167 117.166-83.296 341.102-43.508 380.89 32.192 32.15 263.724 73.7 380.928-43.507q12.245-12.33 23.354-25.713c3.777-16.836 10.556-31.66 19.805-44.596l-.25.37c-6.217 3.233-13.43 5.687-21.04 6.978l-.435.06c-7.685 13.064-16.647 24.305-26.968 34.13l-.064.06c-9.27 9.227-19.185 17.824-29.667 25.71l-.726.523c-4.85 3.57-10.875 5.81-17.41 6.077l-.062.002q-20.992 0-19.755-36.95c-7.07 10.66-15.15 19.86-24.31 27.854l-.162.138c-6.167 5.386-14.23 8.742-23.068 8.96h-.045c-8.278-.112-15.533-4.39-19.778-10.826l-.056-.09c-4.17-5.66-6.948-12.583-7.704-20.102l-.014-.173c-8.555 8.68-18.068 16.375-28.378 22.926l-.653.388c-8.287 4.953-18.277 7.88-28.952 7.88-.225 0-.45 0-.675-.003h.034c-.476.022-1.034.034-1.595.034-10.76 0-20.49-4.42-27.47-11.543l-.006-.005c-5.303-5.582-8.982-12.755-10.248-20.73l-.03-.223v.16c-9.343 8.96-19.683 17.023-30.793 23.968l-.797.465c-7.374 4.688-16.297 7.582-25.874 7.876l-.078.003c-.215.006-.47.01-.723.01-9 0-16.998-4.292-22.06-10.94l-.05-.067c-5.49-7.52-8.78-16.946-8.78-27.142 0-.848.022-1.69.067-2.527l-.005.117c.8-24.134 5.16-46.984 12.567-68.412l-.49 1.63c8.52-27.765 18.47-51.565 30.415-74.148l-1.104 2.29 33.67-12.484c.705-.274 1.522-.46 2.373-.518h.026c2.52 0 4.638 1.878 6.278 5.597 1.562 4.092 2.467 8.826 2.467 13.77 0 .502-.01 1-.028 1.498v-.072c-.04 19.108-4.646 37.13-12.786 53.047l.307-.662c-10.933 20.67-23.893 38.454-39.016 54.137l.068-.07q-1.08 13.794-1.08 18.953c-.026.5-.04 1.087-.04 1.677 0 6.105 1.585 11.84 4.368 16.813l-.09-.174c2.207 4.046 6.425 6.747 11.275 6.758h.002c5.75-.236 11.013-2.148 15.362-5.257l-.087.058c8.933-6.504 16.8-13.37 24.022-20.86l.052-.055c1.27-17.674 8.36-33.486 19.34-45.74l-.065.073c9.972-13.353 25.495-22.084 43.084-22.75l.104-.003c.425-.022.922-.034 1.422-.034 6.962 0 13.358 2.426 18.39 6.478l-.057-.044c4.568 3.87 7.448 9.61 7.448 16.022 0 .23-.004.46-.01.687v-.034q0 27.473-58.344 44.547c3.52 17.195 12.796 25.832 27.71 25.832 6.166-.012 11.923-1.75 16.816-4.76l-.14.08c8.622-5.99 16.15-12.528 22.916-19.79l.077-.084c1.472-10.933 5.134-20.777 10.537-29.42l-.18.31c7.16-11.84 16.562-21.613 27.696-28.984l.335-.21c8.4-6.25 18.775-10.295 30.046-11.105l.186-.01c.368-.02.798-.032 1.23-.032 10.01 0 18.553 6.276 21.91 15.107l.054.16 27.072-14.955h7.437l-11.676 38.83c-4.336 11.7-7.526 25.305-8.977 39.427l-.06.72c0 7.598 2.68 11.397 8.077 11.397 4.507-.415 8.476-2.434 11.39-5.472l.007-.006q6.238-5.518 17.472-16.795v.04c5.484-5.926 10.636-12.372 15.302-19.177l.373-.576c-6.51-2.06-11.185-7.955-11.395-14.972v-.024c.316-8.146 2.87-15.637 7.056-21.95l-.098.158c3.613-6.94 10.75-11.598 18.976-11.598h.187-.01c.357-.048.77-.076 1.19-.076 5.103 0 9.24 4.137 9.24 9.24 0 .506-.04 1.003-.12 1.487l.008-.052c-.69 8.76-2.814 16.858-6.144 24.297l.185-.464q22.016-2.398 38.43-33.67l9.116-.4c16.924-32.044 26.857-70.037 26.857-110.35 0-61.028-22.765-116.74-60.267-159.105l.22.254c-37.75-36.535-89.257-59.05-146.025-59.05-3.42 0-6.822.08-10.203.242l.477-.018z"/></svg>